<svg xmlns="http://www.w3.org/2000/svg" xmlns:xlink="http://www.w3.org/1999/xlink" viewBox="0 0 168.98 118.26"><defs><style>.cls-1{fill:none;}.cls-2{isolation:isolate;}.cls-3{fill:#ffd200;}.cls-4{mix-blend-mode:soft-light;}.cls-5{clip-path:url(#clip-path);}.cls-6{clip-path:url(#clip-path-2);}.cls-7{fill:url(#linear-gradient);}.cls-8{clip-path:url(#clip-path-3);}.cls-9{clip-path:url(#clip-path-4);}.cls-10{fill:url(#linear-gradient-2);}.cls-11{clip-path:url(#clip-path-5);}.cls-12{clip-path:url(#clip-path-6);}.cls-13{fill:url(#linear-gradient-3);}.cls-14{clip-path:url(#clip-path-7);}.cls-15{clip-path:url(#clip-path-8);}.cls-16{fill:url(#linear-gradient-4);}.cls-17{clip-path:url(#clip-path-9);}.cls-18{clip-path:url(#clip-path-10);}.cls-19{fill:url(#linear-gradient-5);}.cls-20{fill:#ffde17;}.cls-21{opacity:0.5;}.cls-22{clip-path:url(#clip-path-11);}.cls-23{fill:#231f20;}.cls-24{clip-path:url(#clip-path-12);}.cls-25{clip-path:url(#clip-path-13);}</style><clipPath id="clip-path" transform="translate(1.16 4.3)"><rect class="cls-1" x="67.92" width="29.66" height="84.86"/></clipPath><clipPath id="clip-path-2" transform="translate(1.16 4.3)"><polygon class="cls-1" points="91.55 84.87 67.92 84.87 73.95 0 97.58 0 91.55 84.87"/></clipPath><linearGradient id="linear-gradient" x1="-169.62" y1="463.42" x2="-168.62" y2="463.42" gradientTransform="matrix(-73.38, 0, 0, 73.38, -12332.66, -33963.2)" gradientUnits="userSpaceOnUse"><stop offset="0" stop-color="#fff"/><stop offset="1" stop-color="#000"/></linearGradient><clipPath id="clip-path-3" transform="translate(1.16 4.3)"><rect class="cls-1" width="72.28" height="19.49"/></clipPath><clipPath id="clip-path-4" transform="translate(1.16 4.3)"><polygon class="cls-1" points="72.28 0 71.02 19.5 0 19.5 1.34 0 72.28 0"/></clipPath><linearGradient id="linear-gradient-2" x1="-169.62" y1="463.42" x2="-168.62" y2="463.42" gradientTransform="matrix(14.47, 0, 0, -14.47, 2482.76, 6717.11)" xlink:href="#linear-gradient"/><clipPath id="clip-path-5" transform="translate(1.16 4.3)"><rect class="cls-1" x="73.95" width="86.25" height="84.86"/></clipPath><clipPath id="clip-path-6" transform="translate(1.16 4.3)"><polygon class="cls-1" points="160.21 0 142.77 40.48 128.89 72.7 123.66 84.86 110.51 84.86 105.27 72.7 73.95 0 97.58 0 116.95 44.98 117.08 45.28 136.58 0 160.21 0"/></clipPath><linearGradient id="linear-gradient-3" x1="-169.62" y1="463.42" x2="-168.62" y2="463.42" gradientTransform="matrix(0, 75.5, 75.5, 0, -34872.19, 12819.36)" xlink:href="#linear-gradient"/><clipPath id="clip-path-7" transform="translate(1.16 4.3)"><rect class="cls-1" x="19.71" width="29.66" height="84.86"/></clipPath><clipPath id="clip-path-8" transform="translate(1.16 4.3)"><polygon class="cls-1" points="43.33 84.86 19.71 84.86 25.74 0 49.36 0 43.33 84.86"/></clipPath><linearGradient id="linear-gradient-4" x1="-169.62" y1="463.42" x2="-168.62" y2="463.42" gradientTransform="matrix(-77.27, 0, 0, 77.27, -13034.83, -35764.57)" xlink:href="#linear-gradient"/><clipPath id="clip-path-9" transform="translate(1.16 4.3)"><rect class="cls-1" x="136.6" width="29.65" height="84.86"/></clipPath><clipPath id="clip-path-10" transform="translate(1.16 4.3)"><polygon class="cls-1" points="142.63 84.86 166.25 84.86 160.22 0 136.6 0 142.63 84.86"/></clipPath><linearGradient id="linear-gradient-5" x1="-169.62" y1="463.42" x2="-168.62" y2="463.42" gradientTransform="matrix(0, 69.32, 69.32, 0, -31971.59, 11776.3)" xlink:href="#linear-gradient"/><clipPath id="clip-path-11" transform="translate(1.16 4.3)"><rect class="cls-1" x="73.95" width="20.3" height="52.25"/></clipPath><clipPath id="clip-path-12" transform="translate(1.16 4.3)"><rect class="cls-1" x="136.6" y="0.01" width="3.34" height="50.81"/></clipPath><clipPath id="clip-path-13" transform="translate(1.16 4.3)"><rect class="cls-1" x="24.26" y="19.46" width="23.72" height="1.9"/></clipPath></defs><g class="cls-2"><g id="Layer_2" data-name="Layer 2"><g id="Layer_1-2" data-name="Layer 1"><polygon class="cls-3" points="92.71 89.17 69.08 89.17 75.11 4.3 98.74 4.3 92.71 89.17"/><g class="cls-4"><g class="cls-5"><g class="cls-6"><rect class="cls-7" x="39.74" y="25.87" width="86.01" height="33.12" transform="translate(38.11 127.67) rotate(-87.64)"/></g></g></g><path d="M21.81,92.07H14v-.56H30.25v.56H22.44v21.45h-.63Zm7,13.51c0,4.85,2.41,7.69,5.79,7.69A5.51,5.51,0,0,0,40,109.58h.62a6,6,0,0,1-6,4.25c-4.78,0-6.44-4.28-6.44-8.12,0-5,2.69-8.1,6.5-8.1,4.82,0,6.32,4.22,6.32,7.19a6.78,6.78,0,0,1,0,.78Zm11.6-.56c0-3.75-1.87-6.85-5.75-6.85-3.44,0-5.63,2.85-5.81,6.85Zm4.91-1.72c0-3.41,0-4.35,0-5.32h.59c.07.78.07,2.57.07,4.51a6.8,6.8,0,0,1,5.87-4.88v.62c-3.19.13-5.87,3.32-5.87,6.91v8.38h-.63Zm9.47,0c0-3.41,0-4.35,0-5.32h.6c.06.78.06,2.57.06,4.51a6.8,6.8,0,0,1,5.88-4.88v.62c-3.19.13-5.88,3.32-5.88,6.91v8.38h-.63Z" transform="translate(1.16 4.3)"/><path d="M74.08,110a27.62,27.62,0,0,0,.16,3.5h-.63a29.34,29.34,0,0,1-.15-3.47c-.85,2.63-2.82,3.85-5.66,3.85-3.75,0-5.22-2.22-5.22-4.44,0-3.35,2.59-4.72,6.94-4.72,1.78,0,2.81,0,3.94,0v-2.19c0-2.25-.94-4.41-4.63-4.41-3.44,0-4.63,1.72-4.85,4.1h-.62c.12-2.25,1.37-4.66,5.5-4.66,3.72,0,5.22,2.06,5.22,4.78Zm-.62-4.69c-1.07,0-2.35,0-4,0-4.22,0-6.26,1.34-6.26,4.13,0,2.4,1.91,3.87,4.6,3.87,3.63,0,5.63-2.22,5.63-6.47Z" transform="translate(1.16 4.3)"/><path d="M92.38,104.05l-4,5.9,3.71,3.57h-.63l-3.32-3.21c-1.58,2.29-2.8,3.43-5,3.43a3.83,3.83,0,0,1-4.11-3.92c0-2.29,1.68-3.45,3.8-4.64-1.26-1.2-2.2-2.39-2.2-4A3.21,3.21,0,0,1,84,97.9,3.05,3.05,0,0,1,87.2,101c0,2.09-1.43,3.1-3.66,4.28l4.58,4.41,3.76-5.62Zm-9.21,1.41c-2,1.15-3.63,2.26-3.63,4.32a3.48,3.48,0,0,0,3.68,3.57c2.19,0,3.46-1.54,4.66-3.32ZM86.74,101A2.7,2.7,0,0,0,84,98.29a2.82,2.82,0,0,0-2.86,2.94c0,1.33.69,2.36,2.13,3.75C85.55,103.75,86.74,102.87,86.74,101Z" transform="translate(1.16 4.3)"/><path d="M117.18,102.77c0-4.47-.06-8.63.06-10.73h-.06c-1.06,2.63-6.56,14.92-9.53,21.48h-.79c-3.19-7.22-8.19-18.63-9.31-21.48h0c.06,1.35,0,7.85,0,11.6v9.88h-.63v-22h1c3.57,8.22,8.41,19.17,9.35,21.29h0c.78-1.81,6.13-13.63,9.51-21.29h1v22h-.63Zm18.73,3c0,5.22-2.76,8.22-6.88,8.22s-6.72-3.16-6.72-8.16c0-5.38,3-8.25,6.87-8.25S135.91,100.55,135.91,105.74Zm-13,0c0,4.13,2.07,7.63,6.07,7.63s6.22-3.29,6.22-7.63c0-4.19-2.16-7.66-6.13-7.66S123,101.67,123,105.77Zm29-15.73V109.8c0,1.1,0,2.82,0,3.72h-.59c0-.53-.06-2.25-.06-3.91a5.58,5.58,0,0,1-5.88,4.29c-3.38,0-6.41-2.66-6.41-8,0-5.62,3.25-8.31,6.82-8.31a5.44,5.44,0,0,1,5.47,3.69V90Zm-12.25,15.82c0,4.69,2.47,7.44,5.78,7.44,3.85,0,5.91-2.62,5.91-7.88,0-4.59-1.81-7.22-5.6-7.22S139.69,101.49,139.69,105.86Zm28,4.16a28.58,28.58,0,0,0,.15,3.5h-.62a28.38,28.38,0,0,1-.16-3.47c-.84,2.63-2.81,3.85-5.66,3.85-3.75,0-5.22-2.22-5.22-4.44,0-3.35,2.6-4.72,6.94-4.72,1.79,0,2.82,0,3.94,0v-2.19c0-2.25-.94-4.41-4.62-4.41-3.44,0-4.63,1.72-4.85,4.1h-.63c.13-2.25,1.38-4.66,5.51-4.66,3.72,0,5.22,2.06,5.22,4.78Zm-.63-4.69c-1.06,0-2.34,0-4,0-4.22,0-6.25,1.34-6.25,4.13,0,2.4,1.91,3.87,4.59,3.87,3.63,0,5.63-2.22,5.63-6.47Z" transform="translate(1.16 4.3)"/><polygon class="cls-3" points="161.37 4.3 143.93 44.77 130.05 77 124.82 89.16 111.67 89.16 106.43 77 75.11 4.3 98.74 4.3 118.11 49.28 118.24 49.57 137.74 4.3 161.37 4.3"/><polygon class="cls-3" points="44.49 89.16 20.87 89.16 26.9 4.3 50.52 4.3 44.49 89.16"/><g class="cls-4"><g class="cls-8"><g class="cls-9"><rect class="cls-10" x="24.26" y="-26.91" width="23.77" height="73.32" transform="translate(25.42 49.54) rotate(-86.58)"/></g></g></g><g class="cls-4"><g class="cls-11"><g class="cls-12"><rect class="cls-13" x="75.11" y="4.3" width="86.25" height="84.86"/></g></g></g><polygon class="cls-3" points="143.79 89.16 167.41 89.16 161.38 4.3 137.76 4.3 143.79 89.16"/><g class="cls-4"><g class="cls-14"><g class="cls-15"><rect class="cls-16" x="-8.48" y="25.84" width="86.03" height="33.18" transform="translate(-8.14 79.46) rotate(-87.6)"/></g></g></g><g class="cls-4"><g class="cls-17"><g class="cls-18"><rect class="cls-19" x="137.76" y="4.3" width="29.66" height="84.86"/></g></g></g><polygon class="cls-20" points="73.44 4.3 72.18 23.79 1.16 23.79 2.5 4.3 73.44 4.3"/><g class="cls-21"><g class="cls-22"><polygon class="cls-23" points="75.11 4.3 95.42 51.44 95.05 56.55 75.11 4.3"/></g></g><g class="cls-21"><g class="cls-24"><polygon class="cls-23" points="137.76 4.31 141.09 51.25 139.42 55.12 137.76 4.31"/></g></g><g class="cls-21"><g class="cls-25"><polygon class="cls-23" points="25.51 23.75 49.14 23.75 25.41 25.65 25.51 23.75"/></g></g></g></g></g></svg>